<svg width="24" height="24" viewBox="0 0 24 24" fill="none" xmlns="http://www.w3.org/2000/svg">
<g id="Icon-Close" clip-path="url(#clip0_26_306)">
<g id="Vector" filter="url(#filter0_d_26_306)">
<path d="M19.1943 6.41714C19.6393 5.97216 19.6393 5.2507 19.1943 4.80571C18.7493 4.36073 18.0278 4.36073 17.5829 4.80571L12 10.3886L6.41714 4.80572C5.97216 4.36073 5.2507 4.36073 4.80571 4.80571C4.36073 5.2507 4.36073 5.97216 4.80571 6.41714L10.3886 12L4.80572 17.5829C4.36073 18.0278 4.36073 18.7493 4.80571 19.1943C5.2507 19.6393 5.97216 19.6393 6.41714 19.1943L12 13.6114L17.5829 19.1943C18.0278 19.6393 18.7493 19.6393 19.1943 19.1943C19.6393 18.7493 19.6393 18.0278 19.1943 17.5829L13.6114 12L19.1943 6.41714Z" fill="#292929"/>
<path d="M11.6464 10.7421L12 11.0957L12.3536 10.7421L17.9364 5.15927C18.1861 4.90955 18.591 4.90955 18.8407 5.15927C19.0905 5.40899 19.0905 5.81387 18.8407 6.06359L13.2579 11.6464L12.9043 12L13.2579 12.3536L18.8407 17.9364C19.0905 18.1861 19.0905 18.591 18.8407 18.8407C18.591 19.0905 18.1861 19.0905 17.9364 18.8407L12.3536 13.2579L12 12.9043L11.6464 13.2579L6.06359 18.8407C5.81387 19.0905 5.40899 19.0905 5.15927 18.8407C4.90955 18.591 4.90955 18.1861 5.15927 17.9364L10.7421 12.3536L11.0957 12L10.7421 11.6464L5.15927 6.06359C4.90955 5.81387 4.90955 5.40899 5.15927 5.15927C5.40899 4.90955 5.81387 4.90955 6.06359 5.15927L11.6464 10.7421Z" stroke="black"/>
</g>
</g>
<defs>
<filter id="filter0_d_26_306" x="0.47168" y="4.47192" width="23.0566" height="23.0562" filterUnits="userSpaceOnUse" color-interpolation-filters="sRGB">
<feFlood flood-opacity="0" result="BackgroundImageFix"/>
<feColorMatrix in="SourceAlpha" type="matrix" values="0 0 0 0 0 0 0 0 0 0 0 0 0 0 0 0 0 0 127 0" result="hardAlpha"/>
<feOffset dy="4"/>
<feGaussianBlur stdDeviation="2"/>
<feComposite in2="hardAlpha" operator="out"/>
<feColorMatrix type="matrix" values="0 0 0 0 0 0 0 0 0 0 0 0 0 0 0 0 0 0 0.25 0"/>
<feBlend mode="normal" in2="BackgroundImageFix" result="effect1_dropShadow_26_306"/>
<feBlend mode="normal" in="SourceGraphic" in2="effect1_dropShadow_26_306" result="shape"/>
</filter>
<clipPath id="clip0_26_306">
<rect width="24" height="24" fill="white"/>
</clipPath>
</defs>
</svg>
